FILE "Comic Road (1997)(NEC Home Electronics)(JP)[FXNHE743].img" BINARY
  TRACK 01 AUDIO
    INDEX 01 00:00:00
  TRACK 02 MODE1/2352
    PREGAP 00:03:00
    INDEX 01 00:53:32
  TRACK 03 MODE1/2352
    INDEX 01 01:07:08
